<mxfile host="Electron" modified="2023-06-25T09:27:17.370Z" agent="Mozilla/5.0 (Windows NT 10.0; Win64; x64) AppleWebKit/537.36 (KHTML, like Gecko) draw.io/21.5.0 Chrome/112.0.5615.204 Electron/24.5.1 Safari/537.36" etag="HWyJGKY3rj51driGk6z4" version="21.5.0" type="device">
  <diagram name="Page-1" id="dXCrmej_SELilW4q_A5O">
    <mxGraphModel dx="989" dy="577" grid="1" gridSize="10" guides="1" tooltips="1" connect="1" arrows="1" fold="1" page="1" pageScale="1" pageWidth="850" pageHeight="1100" math="0" shadow="0">
      <root>
        <mxCell id="0" />
        <mxCell id="1" parent="0" />
        <mxCell id="L1y2SDjcmaBIxmSzRooY-7" style="edgeStyle=orthogonalEdgeStyle;rounded=0;orthogonalLoop=1;jettySize=auto;html=1;" edge="1" parent="1" source="L1y2SDjcmaBIxmSzRooY-2" target="L1y2SDjcmaBIxmSzRooY-5">
          <mxGeometry relative="1" as="geometry">
            <Array as="points">
              <mxPoint x="280" y="560" />
              <mxPoint x="280" y="560" />
            </Array>
          </mxGeometry>
        </mxCell>
        <mxCell id="L1y2SDjcmaBIxmSzRooY-2" value="&lt;b&gt;&lt;i&gt;Клиент&lt;/i&gt;&lt;/b&gt;" style="rounded=1;whiteSpace=wrap;html=1;verticalAlign=bottom;fillColor=#d5e8d4;strokeColor=#82b366;" vertex="1" parent="1">
          <mxGeometry x="40" y="400" width="200" height="240" as="geometry" />
        </mxCell>
        <mxCell id="L1y2SDjcmaBIxmSzRooY-8" style="edgeStyle=orthogonalEdgeStyle;rounded=0;orthogonalLoop=1;jettySize=auto;html=1;" edge="1" parent="1" source="L1y2SDjcmaBIxmSzRooY-5" target="L1y2SDjcmaBIxmSzRooY-2">
          <mxGeometry relative="1" as="geometry">
            <Array as="points">
              <mxPoint x="280" y="480" />
              <mxPoint x="280" y="480" />
            </Array>
          </mxGeometry>
        </mxCell>
        <mxCell id="L1y2SDjcmaBIxmSzRooY-12" style="edgeStyle=orthogonalEdgeStyle;rounded=0;orthogonalLoop=1;jettySize=auto;html=1;" edge="1" parent="1" source="L1y2SDjcmaBIxmSzRooY-5" target="L1y2SDjcmaBIxmSzRooY-6">
          <mxGeometry relative="1" as="geometry">
            <Array as="points">
              <mxPoint x="560" y="560" />
              <mxPoint x="560" y="560" />
            </Array>
          </mxGeometry>
        </mxCell>
        <mxCell id="L1y2SDjcmaBIxmSzRooY-5" value="&lt;b&gt;&lt;i&gt;Сървър&lt;/i&gt;&lt;/b&gt;" style="rounded=1;whiteSpace=wrap;html=1;verticalAlign=bottom;fillColor=#dae8fc;strokeColor=#6c8ebf;" vertex="1" parent="1">
          <mxGeometry x="320" y="400" width="200" height="240" as="geometry" />
        </mxCell>
        <mxCell id="L1y2SDjcmaBIxmSzRooY-11" style="edgeStyle=orthogonalEdgeStyle;rounded=0;orthogonalLoop=1;jettySize=auto;html=1;" edge="1" parent="1" source="L1y2SDjcmaBIxmSzRooY-6" target="L1y2SDjcmaBIxmSzRooY-5">
          <mxGeometry relative="1" as="geometry">
            <Array as="points">
              <mxPoint x="560" y="480" />
              <mxPoint x="560" y="480" />
            </Array>
          </mxGeometry>
        </mxCell>
        <mxCell id="L1y2SDjcmaBIxmSzRooY-6" value="&lt;b&gt;&lt;i&gt;База данни&lt;/i&gt;&lt;/b&gt;" style="rounded=1;whiteSpace=wrap;html=1;verticalAlign=bottom;fillColor=#f8cecc;strokeColor=#b85450;" vertex="1" parent="1">
          <mxGeometry x="600" y="400" width="200" height="240" as="geometry" />
        </mxCell>
        <mxCell id="L1y2SDjcmaBIxmSzRooY-13" value="" style="shape=cylinder3;whiteSpace=wrap;html=1;boundedLbl=1;backgroundOutline=1;size=15;" vertex="1" parent="1">
          <mxGeometry x="643.75" y="445" width="112.5" height="150" as="geometry" />
        </mxCell>
        <mxCell id="L1y2SDjcmaBIxmSzRooY-14" value="AngularJS" style="rounded=0;whiteSpace=wrap;html=1;verticalAlign=bottom;" vertex="1" parent="1">
          <mxGeometry x="80" y="435" width="120" height="170" as="geometry" />
        </mxCell>
        <mxCell id="L1y2SDjcmaBIxmSzRooY-15" value="NodeJS" style="rounded=0;whiteSpace=wrap;html=1;verticalAlign=bottom;" vertex="1" parent="1">
          <mxGeometry x="355" y="435" width="130" height="170" as="geometry" />
        </mxCell>
        <mxCell id="L1y2SDjcmaBIxmSzRooY-16" value="Express" style="rounded=0;whiteSpace=wrap;html=1;" vertex="1" parent="1">
          <mxGeometry x="370" y="450" width="100" height="30" as="geometry" />
        </mxCell>
        <mxCell id="L1y2SDjcmaBIxmSzRooY-17" value="mongoose" style="rounded=0;whiteSpace=wrap;html=1;" vertex="1" parent="1">
          <mxGeometry x="370" y="490" width="100" height="20" as="geometry" />
        </mxCell>
        <mxCell id="L1y2SDjcmaBIxmSzRooY-18" value="JWT" style="rounded=0;whiteSpace=wrap;html=1;" vertex="1" parent="1">
          <mxGeometry x="370" y="520" width="100" height="20" as="geometry" />
        </mxCell>
        <mxCell id="L1y2SDjcmaBIxmSzRooY-19" value="" style="rounded=0;whiteSpace=wrap;html=1;" vertex="1" parent="1">
          <mxGeometry x="370" y="550" width="100" height="10" as="geometry" />
        </mxCell>
        <mxCell id="L1y2SDjcmaBIxmSzRooY-20" value="" style="rounded=0;whiteSpace=wrap;html=1;" vertex="1" parent="1">
          <mxGeometry x="370" y="570" width="100" height="10" as="geometry" />
        </mxCell>
        <mxCell id="L1y2SDjcmaBIxmSzRooY-31" value="Модели" style="rounded=0;whiteSpace=wrap;html=1;" vertex="1" parent="1">
          <mxGeometry x="90" y="500" width="100" height="30" as="geometry" />
        </mxCell>
        <mxCell id="L1y2SDjcmaBIxmSzRooY-32" value="Контролери" style="rounded=0;whiteSpace=wrap;html=1;" vertex="1" parent="1">
          <mxGeometry x="90" y="450" width="100" height="30" as="geometry" />
        </mxCell>
        <mxCell id="L1y2SDjcmaBIxmSzRooY-33" value="Изгледи" style="rounded=0;whiteSpace=wrap;html=1;" vertex="1" parent="1">
          <mxGeometry x="90" y="550" width="100" height="30" as="geometry" />
        </mxCell>
        <mxCell id="L1y2SDjcmaBIxmSzRooY-34" value="Изпраща&lt;br&gt;заявка" style="text;html=1;strokeColor=none;fillColor=none;align=center;verticalAlign=middle;whiteSpace=wrap;rounded=0;" vertex="1" parent="1">
          <mxGeometry x="250" y="570" width="60" height="30" as="geometry" />
        </mxCell>
        <mxCell id="L1y2SDjcmaBIxmSzRooY-35" value="Изпраща&lt;br&gt;заявка" style="text;html=1;strokeColor=none;fillColor=none;align=center;verticalAlign=middle;whiteSpace=wrap;rounded=0;" vertex="1" parent="1">
          <mxGeometry x="530" y="565" width="60" height="30" as="geometry" />
        </mxCell>
        <mxCell id="L1y2SDjcmaBIxmSzRooY-36" value="Получава&lt;br&gt;отговор" style="text;html=1;strokeColor=none;fillColor=none;align=center;verticalAlign=middle;whiteSpace=wrap;rounded=0;" vertex="1" parent="1">
          <mxGeometry x="530" y="445" width="60" height="30" as="geometry" />
        </mxCell>
        <mxCell id="L1y2SDjcmaBIxmSzRooY-37" value="Получава&lt;br&gt;отговор" style="text;html=1;strokeColor=none;fillColor=none;align=center;verticalAlign=middle;whiteSpace=wrap;rounded=0;" vertex="1" parent="1">
          <mxGeometry x="250" y="445" width="60" height="30" as="geometry" />
        </mxCell>
        <mxCell id="L1y2SDjcmaBIxmSzRooY-38" value="" style="html=1;verticalLabelPosition=bottom;align=center;labelBackgroundColor=#ffffff;verticalAlign=top;strokeWidth=2;shadow=0;dashed=0;shape=mxgraph.ios7.icons.message;fillColor=#d5e8d4;strokeColor=#82b366;" vertex="1" parent="1">
          <mxGeometry x="140" y="355.5" width="165" height="79.5" as="geometry" />
        </mxCell>
        <mxCell id="L1y2SDjcmaBIxmSzRooY-39" value="Щом получи отговор, обикновено настъпва видима промяна при клиента" style="text;html=1;align=center;verticalAlign=middle;whiteSpace=wrap;rounded=0;" vertex="1" parent="1">
          <mxGeometry x="152.5" y="355.5" width="140" height="64.5" as="geometry" />
        </mxCell>
        <mxCell id="L1y2SDjcmaBIxmSzRooY-40" value="" style="html=1;verticalLabelPosition=bottom;align=center;labelBackgroundColor=#ffffff;verticalAlign=top;strokeWidth=2;strokeColor=#6c8ebf;shadow=0;dashed=0;shape=mxgraph.ios7.icons.message;fillColor=#dae8fc;" vertex="1" parent="1">
          <mxGeometry x="390" y="355.5" width="200" height="79.5" as="geometry" />
        </mxCell>
        <mxCell id="L1y2SDjcmaBIxmSzRooY-41" value="Щом получи отговор, се извършват операции върху данните, след което се изпраща отговор към клиента" style="text;html=1;strokeColor=none;fillColor=none;align=center;verticalAlign=middle;whiteSpace=wrap;rounded=0;" vertex="1" parent="1">
          <mxGeometry x="403.75" y="355.5" width="172.5" height="64.5" as="geometry" />
        </mxCell>
      </root>
    </mxGraphModel>
  </diagram>
</mxfile>
